<?xml version="1.0" encoding="UTF-8"?>
<svg version="1.1" xmlns="http://www.w3.org/2000/svg" width="120" height="120">
<path d="M0 0 C39.6 0 79.2 0 120 0 C120 39.6 120 79.2 120 120 C80.4 120 40.8 120 0 120 C0 80.4 0 40.8 0 0 Z " fill="#060621" transform="translate(0,0)"/>
<path d="M0 0 C3.74591703 0.57278684 5.47348796 2.09432644 8.12597656 4.73779297 C8.92650452 5.52886444 9.72703247 6.31993591 10.55181885 7.13497925 C11.40612488 7.99535797 12.26043091 8.85573669 13.140625 9.7421875 C14.02280701 10.62149933 14.90498901 11.50081116 15.81390381 12.4067688 C17.67694013 14.26776308 19.53664325 16.1315003 21.39160156 18.00048828 C23.7712076 20.39721085 26.16406181 22.78018043 28.56119156 25.15936089 C30.8449609 27.4296965 33.11728351 29.71141747 35.390625 31.9921875 C36.68422943 33.27668289 36.68422943 33.27668289 38.00396729 34.58712769 C38.7918866 35.38450348 39.57980591 36.18187927 40.39160156 37.00341797 C41.09013245 37.70433563 41.78866333 38.4052533 42.50836182 39.12741089 C44 41 44 41 44 44 C42.51463318 45.56425476 42.51463318 45.56425476 40.47045898 47.2253418 C36.25649983 50.75885913 32.35336637 54.50142417 28.47265625 58.39453125 C27.46107704 59.40467537 27.46107704 59.40467537 26.42906189 60.43522644 C25.02040932 61.8432044 23.61299501 63.25242224 22.20678711 64.6628418 C20.04720227 66.82783604 17.88226118 68.98737256 15.71679688 71.14648438 C14.3434288 72.52051237 12.97037049 73.89485006 11.59765625 75.26953125 C10.94982681 75.91533646 10.30199738 76.56114166 9.63453674 77.22651672 C8.74241737 78.12336433 8.74241737 78.12336433 7.83227539 79.03833008 C7.30791397 79.56348709 6.78355255 80.0886441 6.24330139 80.62971497 C4.88748638 82.00017992 4.88748638 82.00017992 4 84 C3.01 84 2.02 84 1 84 C1.57831472 80.37433056 2.92602607 78.70711996 5.51000977 76.14941406 C6.25070206 75.40894836 6.99139435 74.66848267 7.75453186 73.90557861 C8.55870041 73.11689392 9.36286896 72.32820923 10.19140625 71.515625 C11.42116432 70.29223419 11.42116432 70.29223419 12.67576599 69.04412842 C15.29772762 66.43896894 17.92992448 63.84442921 20.5625 61.25 C22.34117845 59.48636631 24.11918192 57.7220516 25.89648438 55.95703125 C30.2565194 51.63008597 34.62500527 47.31181602 39 43 C37.58297146 39.77343266 35.88168849 37.64618545 33.37646484 35.18115234 C32.63584808 34.44714203 31.89523132 33.71313171 31.13217163 32.95687866 C29.93366074 31.78326279 29.93366074 31.78326279 28.7109375 30.5859375 C27.89251373 29.77508698 27.07408997 28.96423645 26.23086548 28.1288147 C23.616979 25.53936726 20.99678434 22.9564492 18.375 20.375 C14.91883651 16.97179487 11.46916474 13.56220516 8.0234375 10.1484375 C7.22038177 9.36197845 6.41732605 8.57551941 5.5899353 7.76522827 C4.85562286 7.03752228 4.12131042 6.30981628 3.36474609 5.56005859 C2.71347748 4.91926361 2.06220886 4.27846863 1.39120483 3.61825562 C0 2 0 2 0 0 Z " fill="#E3E3E5" transform="translate(17,18)"/>
<path d="M0 0 C0.495 1.485 0.495 1.485 1 3 C-1.89445239 8.32315282 -6.05745573 12.30316576 -10.35546875 16.515625 C-11.05771072 17.21266541 -11.7599527 17.90970581 -12.48347473 18.62786865 C-14.71341736 20.84008686 -16.94997105 23.04545733 -19.1875 25.25 C-21.43482793 27.46971358 -23.68067494 29.69087622 -25.92366028 31.91497803 C-27.31650081 33.29555395 -28.71200567 34.67344802 -30.11039734 36.04840088 C-31.05191399 36.98012115 -31.05191399 36.98012115 -32.01245117 37.93066406 C-32.5666423 38.47660217 -33.12083344 39.02254028 -33.69181824 39.58502197 C-35.10936041 40.98638067 -35.10936041 40.98638067 -36 43 C-36.99 43 -37.98 43 -39 43 C-38.42178271 39.38363555 -37.08969655 37.7266398 -34.50585938 35.18115234 C-33.76839478 34.44714203 -33.03093018 33.71313171 -32.27111816 32.95687866 C-31.47008667 32.17446808 -30.66905518 31.3920575 -29.84375 30.5859375 C-29.02628296 29.77508698 -28.20881592 28.96423645 -27.36657715 28.1288147 C-24.75136729 25.53703627 -22.12621991 22.95561748 -19.5 20.375 C-16.87552687 17.78554543 -14.25318171 15.19398583 -11.63342285 12.59976196 C-10.00171097 10.98507639 -8.36693432 9.37348113 -6.72888184 7.76522827 C-5.99141724 7.03752228 -5.25395264 6.30981628 -4.49414062 5.56005859 C-3.84207642 4.91926361 -3.19001221 4.27846863 -2.51818848 3.61825562 C-0.91040345 2.058986 -0.91040345 2.058986 0 0 Z " fill="#D7D7D9" transform="translate(57,59)"/>
<path d="M0 0 C14.19 0 28.38 0 43 0 C43 0.99 43 1.98 43 3 C28.81 3 14.62 3 0 3 C0 2.01 0 1.02 0 0 Z " fill="#DBDBDE" transform="translate(60,100)"/>
<path d="M0 0 C13.86 0 27.72 0 42 0 C42 0.99 42 1.98 42 3 C27.81 3 13.62 3 -1 3 C-0.67 2.01 -0.34 1.02 0 0 Z " fill="#19908B" transform="translate(61,17)"/>
<path d="M0 0 C-1.39750048 3.15835107 -3.05198234 5.32272825 -5.5 7.75 C-6.41265625 8.67039062 -6.41265625 8.67039062 -7.34375 9.609375 C-9 11 -9 11 -11 11 C-10.42073787 7.46180427 -9.15676523 5.74971757 -6.625 3.25 C-6.01914062 2.63640625 -5.41328125 2.0228125 -4.7890625 1.390625 C-3 0 -3 0 0 0 Z " fill="#DEDEE0" transform="translate(43,77)"/>
<path d="M0 0 C0 4.1592308 -2.24683568 6.14544435 -5 9 C-7.3125 10.875 -7.3125 10.875 -9 12 C-9.66 11.67 -10.32 11.34 -11 11 C-7.37 7.37 -3.74 3.74 0 0 Z " fill="#35353D" transform="translate(42,79)"/>
<path d="M0 0 C0.33 0.99 0.66 1.98 1 3 C-0.9375 6.1875 -0.9375 6.1875 -3 9 C-3.99 8.34 -4.98 7.68 -6 7 C-4.02 4.69 -2.04 2.38 0 0 Z " fill="#CCCBCE" transform="translate(57,59)"/>
</svg>
